<mxfile host="app.diagrams.net" agent="Mozilla/5.0 (Windows NT 6.1; Win64; x64) AppleWebKit/537.36 (KHTML, like Gecko) Chrome/109.0.0.0 Safari/537.36" version="28.2.8">
  <diagram id="9si3c5jMpvYv5PBUfZjZ" name="Page-1">
    <mxGraphModel dx="1474" dy="458" grid="1" gridSize="10" guides="1" tooltips="1" connect="1" arrows="1" fold="1" page="1" pageScale="1" pageWidth="850" pageHeight="1100" math="1" shadow="0">
      <root>
        <mxCell id="0" />
        <mxCell id="1" parent="0" />
        <mxCell id="rvRxivRvpv-94pnli0Hr-1" value="" style="endArrow=none;html=1;rounded=0;strokeWidth=4;" parent="1" source="rvRxivRvpv-94pnli0Hr-9" edge="1">
          <mxGeometry width="50" height="50" relative="1" as="geometry">
            <mxPoint x="40" y="160" as="sourcePoint" />
            <mxPoint x="320" y="160" as="targetPoint" />
          </mxGeometry>
        </mxCell>
        <mxCell id="rvRxivRvpv-94pnli0Hr-2" value="" style="pointerEvents=1;verticalLabelPosition=bottom;shadow=0;dashed=0;align=center;html=1;verticalAlign=top;shape=mxgraph.electrical.capacitors.capacitor_1;fillColor=none;strokeWidth=4;strokeColor=#009900;" parent="1" vertex="1">
          <mxGeometry x="320" y="140" width="80" height="40" as="geometry" />
        </mxCell>
        <mxCell id="rvRxivRvpv-94pnli0Hr-4" value="" style="endArrow=none;html=1;rounded=0;strokeWidth=4;" parent="1" edge="1">
          <mxGeometry width="50" height="50" relative="1" as="geometry">
            <mxPoint x="400" y="159.96" as="sourcePoint" />
            <mxPoint x="680" y="160" as="targetPoint" />
          </mxGeometry>
        </mxCell>
        <mxCell id="rvRxivRvpv-94pnli0Hr-5" value="" style="pointerEvents=1;verticalLabelPosition=bottom;shadow=0;dashed=0;align=center;html=1;verticalAlign=top;shape=mxgraph.electrical.capacitors.capacitor_1;direction=south;fillColor=none;strokeWidth=4;" parent="1" vertex="1">
          <mxGeometry x="100" y="240" width="40" height="80" as="geometry" />
        </mxCell>
        <mxCell id="rvRxivRvpv-94pnli0Hr-6" value="" style="pointerEvents=1;verticalLabelPosition=bottom;shadow=0;dashed=0;align=center;html=1;verticalAlign=top;shape=mxgraph.electrical.capacitors.capacitor_1;direction=south;fillColor=none;strokeWidth=4;strokeColor=#009900;" parent="1" vertex="1">
          <mxGeometry x="180" y="240" width="40" height="80" as="geometry" />
        </mxCell>
        <mxCell id="rvRxivRvpv-94pnli0Hr-7" value="" style="endArrow=none;html=1;rounded=0;strokeWidth=4;" parent="1" edge="1">
          <mxGeometry width="50" height="50" relative="1" as="geometry">
            <mxPoint x="120" y="240" as="sourcePoint" />
            <mxPoint x="120" y="160" as="targetPoint" />
          </mxGeometry>
        </mxCell>
        <mxCell id="rvRxivRvpv-94pnli0Hr-8" value="" style="endArrow=none;html=1;rounded=0;strokeWidth=4;strokeColor=#009900;" parent="1" source="rvRxivRvpv-94pnli0Hr-11" edge="1">
          <mxGeometry width="50" height="50" relative="1" as="geometry">
            <mxPoint x="199.9" y="240" as="sourcePoint" />
            <mxPoint x="199.9" y="160" as="targetPoint" />
          </mxGeometry>
        </mxCell>
        <mxCell id="rvRxivRvpv-94pnli0Hr-10" value="" style="endArrow=none;html=1;rounded=0;strokeWidth=4;" parent="1" target="rvRxivRvpv-94pnli0Hr-9" edge="1">
          <mxGeometry width="50" height="50" relative="1" as="geometry">
            <mxPoint x="40" y="160" as="sourcePoint" />
            <mxPoint x="320" y="160" as="targetPoint" />
          </mxGeometry>
        </mxCell>
        <mxCell id="rvRxivRvpv-94pnli0Hr-9" value="" style="shape=waypoint;sketch=0;fillStyle=solid;size=6;pointerEvents=1;points=[];fillColor=none;resizable=0;rotatable=0;perimeter=centerPerimeter;snapToPoint=1;strokeWidth=4;" parent="1" vertex="1">
          <mxGeometry x="110" y="150" width="20" height="20" as="geometry" />
        </mxCell>
        <mxCell id="rvRxivRvpv-94pnli0Hr-12" value="" style="endArrow=none;html=1;rounded=0;strokeWidth=4;strokeColor=#009900;" parent="1" target="rvRxivRvpv-94pnli0Hr-11" edge="1">
          <mxGeometry width="50" height="50" relative="1" as="geometry">
            <mxPoint x="199.9" y="240" as="sourcePoint" />
            <mxPoint x="199.9" y="160" as="targetPoint" />
          </mxGeometry>
        </mxCell>
        <mxCell id="rvRxivRvpv-94pnli0Hr-11" value="" style="shape=waypoint;sketch=0;fillStyle=solid;size=6;pointerEvents=1;points=[];fillColor=none;resizable=0;rotatable=0;perimeter=centerPerimeter;snapToPoint=1;strokeWidth=4;strokeColor=#009900;" parent="1" vertex="1">
          <mxGeometry x="190" y="150" width="20" height="20" as="geometry" />
        </mxCell>
        <mxCell id="rvRxivRvpv-94pnli0Hr-13" value="" style="pointerEvents=1;verticalLabelPosition=bottom;shadow=0;dashed=0;align=center;html=1;verticalAlign=top;shape=mxgraph.electrical.capacitors.capacitor_1;direction=south;fillColor=none;strokeWidth=4;strokeColor=#009900;" parent="1" vertex="1">
          <mxGeometry x="500" y="240" width="40" height="80" as="geometry" />
        </mxCell>
        <mxCell id="rvRxivRvpv-94pnli0Hr-14" value="" style="pointerEvents=1;verticalLabelPosition=bottom;shadow=0;dashed=0;align=center;html=1;verticalAlign=top;shape=mxgraph.electrical.capacitors.capacitor_1;direction=south;fillColor=none;strokeWidth=4;" parent="1" vertex="1">
          <mxGeometry x="580" y="240" width="40" height="80" as="geometry" />
        </mxCell>
        <mxCell id="rvRxivRvpv-94pnli0Hr-15" value="" style="endArrow=none;html=1;rounded=0;strokeWidth=4;strokeColor=#009900;" parent="1" edge="1">
          <mxGeometry width="50" height="50" relative="1" as="geometry">
            <mxPoint x="520" y="240" as="sourcePoint" />
            <mxPoint x="520" y="160" as="targetPoint" />
          </mxGeometry>
        </mxCell>
        <mxCell id="rvRxivRvpv-94pnli0Hr-16" value="" style="endArrow=none;html=1;rounded=0;strokeWidth=4;" parent="1" source="rvRxivRvpv-94pnli0Hr-19" edge="1">
          <mxGeometry width="50" height="50" relative="1" as="geometry">
            <mxPoint x="599.9" y="240" as="sourcePoint" />
            <mxPoint x="599.9" y="160" as="targetPoint" />
          </mxGeometry>
        </mxCell>
        <mxCell id="rvRxivRvpv-94pnli0Hr-17" value="" style="shape=waypoint;sketch=0;fillStyle=solid;size=6;pointerEvents=1;points=[];fillColor=none;resizable=0;rotatable=0;perimeter=centerPerimeter;snapToPoint=1;strokeWidth=4;strokeColor=#009900;" parent="1" vertex="1">
          <mxGeometry x="510" y="150" width="20" height="20" as="geometry" />
        </mxCell>
        <mxCell id="rvRxivRvpv-94pnli0Hr-18" value="" style="endArrow=none;html=1;rounded=0;strokeWidth=4;" parent="1" target="rvRxivRvpv-94pnli0Hr-19" edge="1">
          <mxGeometry width="50" height="50" relative="1" as="geometry">
            <mxPoint x="599.9" y="240" as="sourcePoint" />
            <mxPoint x="599.9" y="160" as="targetPoint" />
          </mxGeometry>
        </mxCell>
        <mxCell id="rvRxivRvpv-94pnli0Hr-19" value="" style="shape=waypoint;sketch=0;fillStyle=solid;size=6;pointerEvents=1;points=[];fillColor=none;resizable=0;rotatable=0;perimeter=centerPerimeter;snapToPoint=1;strokeWidth=4;" parent="1" vertex="1">
          <mxGeometry x="590" y="150" width="20" height="20" as="geometry" />
        </mxCell>
        <mxCell id="rvRxivRvpv-94pnli0Hr-20" value="" style="pointerEvents=1;verticalLabelPosition=bottom;shadow=0;dashed=0;align=center;html=1;verticalAlign=top;shape=mxgraph.electrical.signal_sources.signal_ground;fillColor=none;strokeWidth=4;" parent="1" vertex="1">
          <mxGeometry x="110" y="320" width="20" height="20" as="geometry" />
        </mxCell>
        <mxCell id="rvRxivRvpv-94pnli0Hr-21" value="" style="pointerEvents=1;verticalLabelPosition=bottom;shadow=0;dashed=0;align=center;html=1;verticalAlign=top;shape=mxgraph.electrical.signal_sources.signal_ground;fillColor=none;strokeWidth=4;strokeColor=#009900;" parent="1" vertex="1">
          <mxGeometry x="190" y="320" width="20" height="20" as="geometry" />
        </mxCell>
        <mxCell id="rvRxivRvpv-94pnli0Hr-22" value="" style="pointerEvents=1;verticalLabelPosition=bottom;shadow=0;dashed=0;align=center;html=1;verticalAlign=top;shape=mxgraph.electrical.signal_sources.signal_ground;fillColor=none;strokeWidth=4;strokeColor=#009900;" parent="1" vertex="1">
          <mxGeometry x="510" y="320" width="20" height="20" as="geometry" />
        </mxCell>
        <mxCell id="rvRxivRvpv-94pnli0Hr-23" value="" style="pointerEvents=1;verticalLabelPosition=bottom;shadow=0;dashed=0;align=center;html=1;verticalAlign=top;shape=mxgraph.electrical.signal_sources.signal_ground;fillColor=none;strokeWidth=4;" parent="1" vertex="1">
          <mxGeometry x="590" y="320" width="20" height="20" as="geometry" />
        </mxCell>
        <mxCell id="rvRxivRvpv-94pnli0Hr-24" value="" style="html=1;shadow=0;dashed=0;align=center;verticalAlign=middle;shape=mxgraph.arrows2.arrow;dy=0;dx=10;notch=0;fillColor=none;strokeWidth=4;" parent="1" vertex="1">
          <mxGeometry x="20" y="155" width="20" height="10" as="geometry" />
        </mxCell>
        <mxCell id="rvRxivRvpv-94pnli0Hr-25" value="" style="html=1;shadow=0;dashed=0;align=center;verticalAlign=middle;shape=mxgraph.arrows2.arrow;dy=0;dx=10;notch=0;fillColor=none;direction=west;strokeWidth=4;" parent="1" vertex="1">
          <mxGeometry x="680" y="155" width="20" height="10" as="geometry" />
        </mxCell>
        <mxCell id="rvRxivRvpv-94pnli0Hr-26" value="&lt;font style=&quot;font-size: 20px; color: rgb(0, 153, 0);&quot;&gt;&lt;b&gt;$$-|A_{gd}|C_n$$&lt;/b&gt;&lt;/font&gt;" style="text;html=1;whiteSpace=wrap;strokeColor=none;fillColor=none;align=center;verticalAlign=middle;rounded=0;" parent="1" vertex="1">
          <mxGeometry x="330" y="90" width="60" height="30" as="geometry" />
        </mxCell>
        <mxCell id="rvRxivRvpv-94pnli0Hr-27" value="&lt;font style=&quot;font-size: 20px; color: rgb(0, 153, 0);&quot;&gt;&lt;b&gt;$$(1+|A_{gd}|)C_n$$&lt;/b&gt;&lt;/font&gt;" style="text;html=1;whiteSpace=wrap;strokeColor=none;fillColor=none;align=center;verticalAlign=middle;rounded=0;" parent="1" vertex="1">
          <mxGeometry x="210" y="230" width="130" height="30" as="geometry" />
        </mxCell>
        <mxCell id="rvRxivRvpv-94pnli0Hr-29" value="&lt;font style=&quot;font-size: 20px; color: rgb(0, 0, 0);&quot;&gt;&lt;b&gt;$$C_{gs1}+(1+|A_{gd}|)C_{gd1}$$&lt;/b&gt;&lt;/font&gt;" style="text;html=1;whiteSpace=wrap;strokeColor=none;fillColor=none;align=center;verticalAlign=middle;rounded=0;" parent="1" vertex="1">
          <mxGeometry x="-100" y="230" width="220" height="30" as="geometry" />
        </mxCell>
        <mxCell id="rvRxivRvpv-94pnli0Hr-32" value="&lt;font style=&quot;font-size: 20px; color: rgb(0, 0, 0);&quot;&gt;&lt;b&gt;$$C_{gs1}+(1+|A_{gd}|)C_{gd1}$$&lt;/b&gt;&lt;/font&gt;" style="text;html=1;whiteSpace=wrap;strokeColor=none;fillColor=none;align=center;verticalAlign=middle;rounded=0;" parent="1" vertex="1">
          <mxGeometry x="610" y="230" width="220" height="30" as="geometry" />
        </mxCell>
        <mxCell id="rvRxivRvpv-94pnli0Hr-33" value="&lt;font style=&quot;font-size: 20px; color: rgb(0, 153, 0);&quot;&gt;&lt;b&gt;$$(1+|A_{gd}|)C_n$$&lt;/b&gt;&lt;/font&gt;" style="text;html=1;whiteSpace=wrap;strokeColor=none;fillColor=none;align=center;verticalAlign=middle;rounded=0;" parent="1" vertex="1">
          <mxGeometry x="380" y="230" width="130" height="30" as="geometry" />
        </mxCell>
        <mxCell id="rvRxivRvpv-94pnli0Hr-34" value="&lt;font style=&quot;font-size: 20px; color: rgb(0, 0, 0);&quot;&gt;&lt;b style=&quot;&quot;&gt;$$V_{ip}$$&lt;/b&gt;&lt;/font&gt;" style="text;html=1;whiteSpace=wrap;strokeColor=none;fillColor=none;align=center;verticalAlign=middle;rounded=0;" parent="1" vertex="1">
          <mxGeometry x="-20" y="110" width="60" height="30" as="geometry" />
        </mxCell>
        <mxCell id="rvRxivRvpv-94pnli0Hr-35" value="&lt;font style=&quot;font-size: 20px; color: rgb(0, 0, 0);&quot;&gt;&lt;b style=&quot;&quot;&gt;$$V_{im}$$&lt;/b&gt;&lt;/font&gt;" style="text;html=1;whiteSpace=wrap;strokeColor=none;fillColor=none;align=center;verticalAlign=middle;rounded=0;" parent="1" vertex="1">
          <mxGeometry x="680" y="110" width="60" height="30" as="geometry" />
        </mxCell>
      </root>
    </mxGraphModel>
  </diagram>
</mxfile>
